<?xml version="1.0" encoding="utf-8"?>
<svg xmlns="http://www.w3.org/2000/svg" version="1.1" xlink="http://www.w3.org/1999/xlink" xmlns:svgjs="http://svgjs.com/svgjs" width="100%" height="100%" viewBox="8.052000999450684 5.129500389099121 41.56199645996094 41.741249084472656"><g fill="rgb(35, 186, 81)"><path fill-rule="evenodd" clip-rule="evenodd" d="M49.611 16.958c0-1.65-1.227-3.564-2.725-4.254L31.559 5.647c-1.498-.69-3.951-.69-5.45 0l-15.331 7.057c-1.499.69-2.726 2.604-2.726 4.254v18.083c0 1.65 1.227 3.564 2.726 4.255l15.331 7.058c1.499.689 3.952.689 5.45 0l15.33-7.058c1.498-.69 2.725-2.604 2.725-4.255l-.003-18.083zm-5.26 2.518l-11.574 5.327c-.999.459-1.816 1.736-1.816 2.836V39.92c0 1.1-.9 2-2 2h-.262c-1.1 0-2-.9-2-2V27.638c0-1.101-.817-2.376-1.816-2.836l-11.571-5.325a2.006 2.006 0 0 1-.98-2.653l.109-.239a2.005 2.005 0 0 1 2.652-.98l11.921 5.488c.999.46 2.634.46 3.633 0l11.924-5.488a2.005 2.005 0 0 1 2.652.98l.109.239a2.006 2.006 0 0 1-.981 2.652z"></path></g></svg>